<svg width="49" height="48" viewBox="0 0 49 48" fill="none" xmlns="http://www.w3.org/2000/svg">
<path fill-rule="evenodd" clip-rule="evenodd" d="M15.8305 19.9984H33.1717C34.0561 19.9982 34.9041 19.6467 35.5293 19.0211C36.1544 18.3956 36.5055 17.5473 36.5051 16.663V7.32709C36.5051 6.44242 36.154 5.59391 35.5285 4.96835C34.9029 4.3428 34.0544 3.99147 33.1697 3.9917H15.8285C14.9441 3.99189 14.0961 4.34341 13.4709 4.96894C12.8458 5.59446 12.4948 6.44273 12.4951 7.32709V16.665C12.4951 17.5493 12.8468 18.3974 13.4724 19.0225C14.0979 19.6477 14.9461 19.9987 15.8305 19.9984Z" fill="#00ADEF"/>
<path d="M34.4135 39.8281H32.511C31.9937 39.8277 31.4824 39.9387 31.0119 40.1536L23.4043 43.6184" stroke="white" stroke-width="1.5" stroke-linecap="round" stroke-linejoin="round"/>
<path d="M42.5077 28.1792H37.5056C35.8481 28.1792 34.5044 29.5229 34.5044 31.1804V39.1838C34.5044 40.8413 35.8481 42.185 37.5056 42.185H42.5077" stroke="#323232" stroke-width="1.5" stroke-linecap="round" stroke-linejoin="round"/>
<path d="M6.49268 42.185H11.4948C13.1523 42.185 14.496 40.8413 14.496 39.1838V31.1804C14.496 29.5229 13.1523 28.1792 11.4948 28.1792H6.49268" stroke="#323232" stroke-width="1.5" stroke-linecap="round" stroke-linejoin="round"/>
<path d="M35.3153 29.0352L29.1185 26.3074C28.004 25.8169 26.7174 25.9202 25.6954 26.5822L20.9757 29.6401C20.2664 30.0998 19.8108 30.8628 19.7425 31.7052C19.6741 32.5476 20.0008 33.3741 20.6267 33.9421V33.9421C21.4391 34.6778 22.6133 34.8552 23.6068 34.3923L26.4205 33.0777L28.3984 34.8729C28.9764 35.3975 29.3224 36.1303 29.3601 36.9099C29.3979 37.6896 29.1244 38.4524 28.5997 39.0304C28.5386 39.0977 28.4745 39.1621 28.4074 39.2236L24.2161 43.0597C22.8386 44.3204 20.7277 44.3252 19.3445 43.0707L16.8249 40.7855C16.2047 40.2349 15.4249 39.8966 14.5991 39.8198" stroke="#323232" stroke-width="1.5" stroke-linecap="round" stroke-linejoin="round"/>
<path d="M14.5366 30.2874L18.9056 28.7128C19.9104 28.3605 21.0197 28.4717 21.9345 29.0166" stroke="#323232" stroke-width="1.5" stroke-linecap="round" stroke-linejoin="round"/>
<path d="M26.6231 9.87205C27.7956 11.0445 27.7956 12.9454 26.6231 14.1178C25.4507 15.2902 23.5498 15.2902 22.3774 14.1178C21.2049 12.9454 21.2049 11.0445 22.3774 9.87205C22.9404 9.309 23.704 8.99268 24.5003 8.99268C25.2965 8.99268 26.0601 9.309 26.6231 9.87205" stroke="#323232" stroke-width="1.5" stroke-linecap="round" stroke-linejoin="round"/>
</svg>
