<svg width="49" height="48" viewBox="0 0 49 48" fill="none" xmlns="http://www.w3.org/2000/svg">
<path fill-rule="evenodd" clip-rule="evenodd" d="M38.5 34H36.5C35.396 34 34.5 33.104 34.5 32V22C34.5 20.896 35.396 20 36.5 20H38.5C40.71 20 42.5 21.79 42.5 24V30C42.5 32.21 40.71 34 38.5 34Z" fill="#00ADEF"/>
<path fill-rule="evenodd" clip-rule="evenodd" d="M12.5 34H10.5C8.29 34 6.5 32.21 6.5 30V24C6.5 21.79 8.29 20 10.5 20H12.5C13.604 20 14.5 20.896 14.5 22V32C14.5 33.104 13.604 34 12.5 34Z" fill="#00ADEF"/>
<path d="M37.5 20V19C37.5 11.82 31.68 6 24.5 6V6C17.32 6 11.5 11.82 11.5 19V20" stroke="#323232" stroke-width="1.5" stroke-linecap="round" stroke-linejoin="round"/>
<path fill-rule="evenodd" clip-rule="evenodd" d="M25.75 42.5H23.25C21.87 42.5 20.75 41.38 20.75 40V40C20.75 38.62 21.87 37.5 23.25 37.5H25.75C27.13 37.5 28.25 38.62 28.25 40V40C28.25 41.38 27.13 42.5 25.75 42.5Z" stroke="#323232" stroke-width="1.5" stroke-linecap="round" stroke-linejoin="round"/>
<path d="M28.25 40H32.5C34.71 40 36.5 38.21 36.5 36V34" stroke="#323232" stroke-width="1.5" stroke-linecap="round" stroke-linejoin="round"/>
</svg>
