<svg width="48" height="48" viewBox="0 0 48 48" fill="none" xmlns="http://www.w3.org/2000/svg">
<path d="M44.0086 19.9985V28.0019C44.0086 32.422 40.4253 36.0052 36.0052 36.0052H34.0044" stroke="#323232" stroke-width="1.5" stroke-linecap="round" stroke-linejoin="round"/>
<path d="M3.9917 17.9975V11.995C3.9917 7.57491 7.57491 3.9917 11.995 3.9917H28.0017" stroke="#323232" stroke-width="1.5" stroke-linecap="round" stroke-linejoin="round"/>
<path d="M15.997 36.0049V42.0074" stroke="#323232" stroke-width="1.5" stroke-linecap="round" stroke-linejoin="round"/>
<path d="M20.9988 42.0077H10.9946" stroke="#323232" stroke-width="1.5" stroke-linecap="round" stroke-linejoin="round"/>
<path fill-rule="evenodd" clip-rule="evenodd" d="M13.9958 17.9976H17.9975C20.2075 17.9976 21.9991 19.7892 21.9991 21.9992V28.0017C21.9991 29.1068 21.1033 30.0026 19.9983 30.0026H11.995C10.8899 30.0026 9.99414 29.1068 9.99414 28.0017V21.9992C9.99414 19.7892 11.7857 17.9976 13.9958 17.9976Z" fill="#00ADEF"/>
<path fill-rule="evenodd" clip-rule="evenodd" d="M8.994 30.0024H22.9998C24.1049 30.0024 25.0007 30.8982 25.0007 32.0033V33.0037C25.0007 34.6612 23.657 36.0049 21.9994 36.0049H9.29412C8.68387 36.0049 8.09861 35.7625 7.6671 35.331C7.23559 34.8995 6.99316 34.3142 6.99316 33.704V32.0033C6.99316 30.8982 7.88897 30.0024 8.994 30.0024Z" fill="#00ADEF"/>
<path d="M28.0017 26.001V28.0026C28.0017 29.1076 27.1059 30.0034 26.0009 30.0034H5.99253C4.8875 30.0034 3.9917 29.1076 3.9917 28.0026V26.001" stroke="#323232" stroke-width="1.5" stroke-linecap="round" stroke-linejoin="round"/>
<path fill-rule="evenodd" clip-rule="evenodd" d="M39.3221 4.77154L40.4228 6.783C40.6062 7.11825 40.8819 7.39391 41.2172 7.57733L43.2284 8.67767C43.7093 8.94078 44.0083 9.44527 44.0083 9.99341C44.0083 10.5416 43.7093 11.0461 43.2284 11.3092L41.2194 12.4084C40.8844 12.5917 40.6089 12.8672 40.4254 13.2021L39.3218 15.2171C39.0585 15.6978 38.5541 15.9964 38.0061 15.9964C37.4581 15.9964 36.9538 15.6973 36.6907 15.2166L35.5906 13.206C35.4073 12.871 35.1319 12.5954 34.7969 12.412L32.7827 11.3089C32.3021 11.0456 32.0034 10.5412 32.0034 9.99319C32.0034 9.44518 32.3025 8.94086 32.7832 8.67779L34.7963 7.57631C35.1315 7.39287 35.4072 7.11722 35.5906 6.78198L36.6906 4.7716C36.9537 4.29074 37.4582 3.9917 38.0063 3.9917C38.5545 3.9917 39.0589 4.29069 39.3221 4.77154Z" fill="#00ADEF"/>
</svg>
