<svg width="48" height="48" viewBox="0 0 48 48" fill="none" xmlns="http://www.w3.org/2000/svg">
<path d="M17 26C17 23.7909 18.7909 22 21 22H27C29.2091 22 31 23.7909 31 26V42H17V26Z" fill="#00ADEF"/>
<path d="M6 19.9999C5.99986 19.4181 6.12667 18.8432 6.37158 18.3154C6.61648 17.7876 6.9736 17.3195 7.418 16.9439L21.418 4.94594C22.14 4.33575 23.0547 4.00098 24 4.00098C24.9453 4.00098 25.86 4.33575 26.582 4.94594L40.582 16.9439C41.0264 17.3195 41.3835 17.7876 41.6284 18.3154C41.8733 18.8432 42.0001 19.4181 42 19.9999V37.9999C42 39.0608 41.5786 40.0782 40.8284 40.8284C40.0783 41.5785 39.0609 41.9999 38 41.9999H10C8.93913 41.9999 7.92172 41.5785 7.17157 40.8284C6.42143 40.0782 6 39.0608 6 37.9999V19.9999Z" stroke="black" stroke-width="2" stroke-linecap="round" stroke-linejoin="round"/>
</svg>
