<svg width="151" height="66" viewBox="0 0 151 66" fill="none" xmlns="http://www.w3.org/2000/svg">
<path d="M150.301 5.16503C133.949 -1.84784 116.891 4.48442 104.114 15.96C103.988 16.0749 103.841 16.1323 103.675 16.1323C100.895 16.1725 98.1034 16.1783 95.3005 16.1496C95.294 16.1477 95.2879 16.1444 95.2829 16.1399C95.2779 16.1355 95.2742 16.1302 95.2723 16.1246C95.2705 16.1191 95.2705 16.1136 95.2725 16.1088C95.2745 16.104 95.2782 16.1002 95.2833 16.0979C100.906 11.0608 106.819 7.09487 113.022 4.20012C124.601 -1.21031 139.333 -1.84784 150.404 4.9755C151.208 5.47518 151.174 5.53836 150.301 5.16503Z" fill="white"/>
<path d="M141.452 7.69811C133.311 8.29256 125.066 11.8421 118.484 16.7356C118.202 16.9423 117.886 17.0457 117.536 17.0457L112.66 17.0888C112.589 17.0913 112.518 17.0711 112.459 17.031C112.4 16.991 112.356 16.9332 112.332 16.866C112.308 16.7989 112.306 16.7258 112.326 16.6575C112.346 16.5891 112.388 16.5289 112.444 16.4857C121.852 9.05071 136.197 3.39044 147.526 8.13749C147.601 8.17195 147.644 8.22651 147.655 8.30118C147.655 8.3299 147.658 8.35861 147.664 8.38733C147.67 8.45051 147.638 8.47636 147.569 8.46487C145.553 8.00826 143.52 7.55165 141.452 7.69811Z" fill="white"/>
<path d="M18.4256 59.8982C6.81213 54.5911 -1.02782 44.1752 0.109407 30.9507C1.35001 16.3736 12.6102 7.18964 27.0323 7.07764C27.1414 7.07764 27.1989 7.12933 27.2046 7.23271C27.2103 7.33035 27.1644 7.38779 27.0668 7.40502C15.7979 8.97301 6.49336 16.2013 4.8823 27.8147C2.33216 46.1395 19.1407 56.9345 35.4064 56.3228C41.1499 56.1046 46.5374 54.8238 51.5687 52.4804C52.7404 51.9405 53.9437 51.682 55.1786 51.705C58.9061 51.7682 62.6021 51.7797 66.2665 51.7395C66.8868 51.7337 66.9471 51.9118 66.4474 52.2736C52.3786 62.6034 34.3381 67.1609 18.4256 59.8982Z" fill="white"/>
<path d="M26.317 50.1458C23.4395 49.669 21.0215 48.8161 19.0629 47.587C3.65012 37.9292 7.55287 14.7282 25.826 11.1873C25.9523 11.1643 26.0758 11.1758 26.1964 11.2217C26.5353 11.3653 26.5353 11.506 26.1964 11.6439C21.2972 13.6311 17.7505 17.2123 15.5565 22.3872C11.5762 31.7693 14.85 42.7194 23.6118 48.3452C24.4906 48.9023 25.4297 49.3216 26.429 49.603C26.501 49.6179 26.5641 49.6607 26.6045 49.7221C26.6449 49.7835 26.6593 49.8584 26.6444 49.9304C26.6296 50.0024 26.5867 50.0655 26.5253 50.1059C26.4639 50.1463 26.389 50.1606 26.317 50.1458Z" fill="white"/>
<path d="M39.2663 20.5264H37.9223C37.613 20.5264 37.3623 20.7771 37.3623 21.0864V22.4131C37.3623 22.7224 37.613 22.9731 37.9223 22.9731H39.2663C39.5756 22.9731 39.8263 22.7224 39.8263 22.4131V21.0864C39.8263 20.7771 39.5756 20.5264 39.2663 20.5264Z" fill="white"/>
<path d="M42.4884 24.4119C42.385 22.103 42.9795 20.2852 45.7536 20.5264C46.0006 20.5436 46.1959 20.6499 46.3394 20.8452C46.552 21.1209 46.5835 21.4138 46.4342 21.7239C46.3366 21.9364 46.1786 22.0915 45.9604 22.1892C45.0414 22.6199 44.6709 23.4039 44.849 24.5411C44.9007 24.8858 45.1017 25.0466 45.4521 25.0236L45.9087 24.9891C45.9907 24.9833 46.0731 24.9942 46.1507 25.0213C46.2283 25.0485 46.2996 25.0912 46.3601 25.1469C46.4206 25.2025 46.4691 25.27 46.5026 25.3451C46.5361 25.4202 46.5539 25.5014 46.5548 25.5836V26.1867C46.5548 26.3017 46.5088 26.4122 46.4266 26.4944C46.3444 26.5765 46.2327 26.6238 46.1154 26.6261L45.2711 26.6519C45.0242 26.6576 44.9007 26.784 44.9007 27.031L44.9179 35.026C44.9181 35.1097 44.9011 35.1926 44.868 35.2694C44.8349 35.3461 44.7865 35.4151 44.7257 35.4718C44.6649 35.5285 44.5931 35.5718 44.515 35.5989C44.4368 35.626 44.354 35.6363 44.2718 35.6291L42.9881 35.5257C42.6262 35.497 42.4453 35.3017 42.4453 34.9398L42.4625 27.2464C42.4625 26.8443 42.2587 26.6289 41.8509 26.6002C41.4373 26.5715 41.1387 26.3762 40.9549 26.0144C40.7883 25.6755 40.8716 25.4228 41.2047 25.2562C41.4459 25.1356 41.6958 25.0609 41.9542 25.0322C42.3276 24.992 42.5056 24.7852 42.4884 24.4119Z" fill="white"/>
<path d="M30.8576 33.7593L35.5444 33.7334C35.5975 33.7333 35.6502 33.7441 35.699 33.7652C35.7478 33.7863 35.7917 33.8172 35.8281 33.8559C35.8644 33.8947 35.8924 33.9406 35.9103 33.9906C35.9282 34.0407 35.9356 34.0939 35.9321 34.147L35.8718 35.2325C35.8651 35.3323 35.8202 35.4256 35.7463 35.4931C35.6725 35.5605 35.5754 35.5968 35.4755 35.5943L28.3506 35.5685C28.2478 35.5685 28.1491 35.5276 28.0764 35.4549C28.0037 35.3822 27.9629 35.2836 27.9629 35.1808V21.3618C27.9629 21.259 28.0037 21.1604 28.0764 21.0877C28.1491 21.015 28.2478 20.9741 28.3506 20.9741L30.0995 20.9914C30.2023 20.9914 30.3009 21.0322 30.3736 21.1049C30.4463 21.1776 30.4872 21.2762 30.4872 21.379L30.47 33.3716C30.47 33.4225 30.48 33.4729 30.4995 33.5199C30.5189 33.567 30.5475 33.6097 30.5835 33.6457C30.6195 33.6817 30.6622 33.7103 30.7093 33.7297C30.7563 33.7492 30.8067 33.7593 30.8576 33.7593Z" fill="white"/>
<path d="M63.4325 29.5896L63.4411 35.1292C63.4411 35.4106 63.3004 35.5542 63.019 35.56L61.4337 35.5858C61.3651 35.587 61.297 35.5744 61.2333 35.549C61.1696 35.5235 61.1116 35.4856 61.0626 35.4375C61.0137 35.3894 60.9749 35.332 60.9484 35.2687C60.9218 35.2054 60.9082 35.1375 60.9082 35.0689L60.9168 21.4739C60.9168 21.1638 61.0719 21.0058 61.382 21.0001L63.1482 20.9742C63.3607 20.9742 63.467 21.0776 63.467 21.2844L63.4066 26.9102C63.4009 27.4271 63.5588 27.4845 63.8805 27.0825L68.214 21.629C68.5586 21.1925 69.0124 20.9742 69.5752 20.9742H70.8158C71.4017 20.9685 71.5079 21.1896 71.1346 21.6376L66.0257 27.7373C65.8419 27.9555 65.839 28.1738 66.0171 28.392L71.3586 34.9914C71.6745 35.3819 71.5797 35.5772 71.0743 35.5772H69.3254C68.8716 35.5772 68.504 35.3992 68.2226 35.0431L63.8374 29.4517C63.5675 29.1014 63.4325 29.1473 63.4325 29.5896Z" fill="white"/>
<path d="M51.465 27.1687C51.488 28.9549 51.4937 30.7843 51.4822 32.6567C51.4822 33.3229 51.8096 33.7192 52.4644 33.8456C52.8377 33.9145 53.0445 34.1385 53.0847 34.5176C53.1076 34.7416 53.0818 34.9598 53.0071 35.1723C52.9152 35.4308 52.7343 35.5686 52.4644 35.5859C51.2237 35.6835 50.3134 35.3762 49.7333 34.664C48.5616 33.208 49.0613 28.9176 49.0958 27.1859C49.0958 26.9447 48.9838 26.7781 48.7598 26.6863C48.5702 26.6058 48.3721 26.5541 48.1653 26.5312C47.9183 26.5082 47.7173 26.4019 47.5622 26.2124C47.4359 26.0688 47.3842 25.9023 47.4072 25.7127C47.4703 25.236 47.7374 25.0321 48.2084 25.101C48.3979 25.124 48.576 25.0953 48.7425 25.0149C48.9838 24.9 49.0958 24.7105 49.0785 24.4463L49.0182 23.6537C49.0086 23.4987 49.0523 23.3454 49.1418 23.2197C49.2313 23.0941 49.3612 23.0039 49.5093 22.9644L51.2582 22.5078C51.4707 22.4504 51.5712 22.5337 51.5597 22.7577L51.4477 24.4549C51.4305 24.7823 51.5856 24.9603 51.913 24.989C52.091 25.0063 52.2719 25.0407 52.4557 25.0924C53.8055 25.4945 53.8514 25.9913 52.5936 26.5829C52.4328 26.6575 52.2633 26.6776 52.0853 26.6432C51.666 26.5685 51.4592 26.7437 51.465 27.1687Z" fill="white"/>
<path d="M129.029 27.1085C129.024 28.9522 129.032 30.7844 129.055 32.6051C129.061 33.2828 129.397 33.6906 130.063 33.8284C130.511 33.9203 130.735 34.1932 130.735 34.6469C130.741 35.2098 130.468 35.517 129.917 35.5687C127.754 35.7669 126.583 34.4746 126.626 32.45C126.66 30.5604 126.669 28.7942 126.652 27.1516C126.646 26.7897 126.465 26.5944 126.109 26.5657C125.724 26.537 125.388 26.4107 125.101 26.1867C125.045 26.1423 125 26.0859 124.969 26.0218C124.938 25.9577 124.922 25.8874 124.922 25.8162C124.922 25.745 124.938 25.6747 124.969 25.6106C125 25.5465 125.045 25.4901 125.101 25.4457C125.405 25.1988 125.77 25.0638 126.195 25.0408C126.545 25.0178 126.692 24.834 126.634 24.4894C126.416 23.2259 127.1 22.5912 128.685 22.5854C129.006 22.5854 129.153 22.7463 129.124 23.0679L129.003 24.2913C128.988 24.4488 129.031 24.6066 129.125 24.7339C129.219 24.8613 129.357 24.9492 129.512 24.9805C129.673 25.015 129.833 25.0552 129.994 25.1011C131.35 25.4974 131.393 25.9885 130.123 26.5743C129.98 26.6375 129.833 26.649 129.684 26.6088C129.607 26.5875 129.526 26.5843 129.448 26.5995C129.37 26.6146 129.296 26.6477 129.233 26.6961C129.169 26.7445 129.118 26.8069 129.083 26.8784C129.047 26.95 129.029 27.0287 129.029 27.1085Z" fill="white"/>
<path d="M82.4085 31.4339C82.4224 32.5786 81.9811 33.6819 81.1816 34.5012C80.3821 35.3205 79.2899 35.7886 78.1453 35.8026L77.0426 35.816C76.4758 35.823 75.9132 35.7182 75.3869 35.5077C74.8606 35.2972 74.3809 34.9851 73.9753 34.5892C73.5696 34.1934 73.2459 33.7215 73.0226 33.2005C72.7993 32.6795 72.6808 32.1196 72.6738 31.5528L72.6444 29.1407C72.6304 27.9961 73.0717 26.8927 73.8712 26.0735C74.6707 25.2542 75.7629 24.7861 76.9076 24.7721L78.0102 24.7586C78.577 24.7517 79.1396 24.8565 79.6659 25.067C80.1922 25.2775 80.6719 25.5895 81.0776 25.9854C81.4832 26.3813 81.807 26.8532 82.0303 27.3742C82.2536 27.8952 82.3721 28.455 82.379 29.0218L82.4085 31.4339ZM77.4977 34.1211C78.1763 34.1246 78.8293 33.7241 79.3129 33.0077C79.7965 32.2913 80.0712 31.3175 80.0765 30.3008C80.0792 29.7973 80.0156 29.2984 79.8895 28.8326C79.7633 28.3668 79.577 27.9432 79.3413 27.5859C79.1056 27.2287 78.825 26.9448 78.5155 26.7505C78.2061 26.5563 77.8739 26.4554 77.5379 26.4536C76.8593 26.45 76.2063 26.8505 75.7227 27.567C75.2391 28.2834 74.9644 29.2571 74.959 30.2739C74.9564 30.7774 75.02 31.2762 75.1461 31.7421C75.2723 32.2079 75.4586 32.6315 75.6943 32.9887C75.93 33.346 76.2106 33.6298 76.5201 33.8241C76.8295 34.0184 77.1617 34.1193 77.4977 34.1211Z" fill="white"/>
<path d="M86.8053 25.687C87.3911 25.015 88.1924 24.7048 89.209 24.7565C91.8453 24.8857 93.2582 26.7553 93.1893 29.3313C93.1376 31.2726 93.1261 33.2081 93.1548 35.138C93.1548 35.4654 92.994 35.6204 92.6723 35.6032L91.1388 35.5343C90.7942 35.5228 90.6276 35.3419 90.6391 34.9915C90.7195 32.6711 90.7138 30.5288 90.6219 28.5645C90.5702 27.5709 90.0763 26.8759 89.1401 26.4796C88.9792 26.4107 88.8127 26.402 88.6404 26.4537C87.371 26.8443 86.7306 27.7058 86.7191 29.0383L86.6847 35.0518C86.6847 35.4079 86.5038 35.5831 86.1419 35.5774L84.8065 35.5601C84.416 35.5601 84.2207 35.3649 84.2207 34.9743V25.5491C84.2213 25.4167 84.2668 25.2884 84.3498 25.1851C84.4327 25.0818 84.5481 25.0097 84.6773 24.9805C85.3895 24.8197 85.9265 25.0408 86.2884 25.6439C86.4377 25.8966 86.61 25.911 86.8053 25.687Z" fill="white"/>
<path d="M106.965 31.1576C106.092 31.1691 105.868 31.5539 106.293 32.3121C106.483 32.6567 106.635 32.9381 106.75 33.1564C106.957 33.53 107.278 33.8273 107.666 34.0042C108.054 34.181 108.488 34.2281 108.903 34.1385L111.428 33.5871C111.486 33.5745 111.546 33.5801 111.601 33.6031C111.657 33.6262 111.704 33.6657 111.738 33.7164L111.971 34.0782C112.275 34.5549 112.166 34.9082 111.643 35.1379C105.724 37.757 102.028 33.1908 104.079 27.4875C105.724 22.9472 112.832 24.1275 112.444 29.4518C112.358 30.612 111.709 31.1835 110.497 31.1662C109.349 31.149 108.171 31.1461 106.965 31.1576ZM106.655 29.469L109.584 29.3829C109.642 29.3806 109.699 29.3671 109.751 29.3429C109.803 29.3188 109.851 29.2845 109.89 29.2421C109.929 29.1997 109.96 29.15 109.979 29.0958C109.999 29.0416 110.009 28.984 110.006 28.9263V28.7884C109.986 28.157 109.778 27.5576 109.428 27.1216C109.077 26.6855 108.613 26.4484 108.137 26.4623H107.93C107.693 26.4688 107.46 26.5374 107.244 26.664C107.029 26.7906 106.835 26.9729 106.674 27.2002C106.513 27.4276 106.388 27.6956 106.307 27.9888C106.225 28.2821 106.188 28.5948 106.198 28.909L106.207 29.0469C106.211 29.1619 106.261 29.2706 106.345 29.3495C106.428 29.4285 106.54 29.4714 106.655 29.469Z" fill="white"/>
<path d="M116.744 35.1982V39.6265C116.744 39.9596 116.577 40.1175 116.244 40.1003L114.65 40.0314C114.392 40.0256 114.263 39.8907 114.263 39.6265L114.254 25.4629C114.254 25.3475 114.296 25.2363 114.37 25.1493C114.444 25.0624 114.547 25.0055 114.659 24.989C115.055 24.9259 115.443 24.9603 115.822 25.0924C116.092 25.1843 116.238 25.371 116.261 25.6524C116.273 25.8075 116.356 25.8936 116.511 25.9109C116.637 25.9281 116.749 25.8965 116.847 25.8161C118.312 24.6444 119.914 24.3974 121.654 25.0752C125.058 26.4019 125.204 33.4837 122.232 35.224C120.56 36.1947 118.909 36.0971 117.278 34.9311C116.922 34.6727 116.744 34.7617 116.744 35.1982ZM121.782 28.7883C121.778 28.1737 121.529 27.5859 121.092 27.1544C120.654 26.7228 120.063 26.4828 119.448 26.4871L119.121 26.4893C118.506 26.4936 117.919 26.7419 117.487 27.1795C117.055 27.6172 116.815 28.2083 116.82 28.8229L116.84 31.7866C116.845 32.4012 117.093 32.989 117.531 33.4205C117.968 33.8521 118.559 34.0921 119.174 34.0878L119.501 34.0856C120.116 34.0813 120.704 33.833 121.135 33.3954C121.567 32.9577 121.807 32.3666 121.803 31.752L121.782 28.7883Z" fill="white"/>
<path d="M39.2839 24.9901L37.9399 24.9878C37.6306 24.9873 37.3794 25.2375 37.3789 25.5468L37.3624 35.0237C37.3618 35.3329 37.6121 35.5841 37.9214 35.5846L39.2654 35.587C39.5746 35.5875 39.8258 35.3372 39.8263 35.028L39.8429 25.5511C39.8434 25.2418 39.5931 24.9907 39.2839 24.9901Z" fill="white"/>
<path d="M98.2123 33.9578H101.676C102.124 33.9521 102.316 34.1704 102.253 34.6126L102.193 35.052C102.141 35.4253 101.925 35.612 101.546 35.612L95.3778 35.5861C95.2242 35.5853 95.0736 35.5437 94.9413 35.4658C94.8089 35.3878 94.6996 35.2763 94.6243 35.1424C94.5491 35.0085 94.5106 34.8571 94.5128 34.7035C94.515 34.5499 94.5578 34.3997 94.6369 34.268L98.8067 27.2724C99.0537 26.8531 98.9359 26.6434 98.4535 26.6434L95.3434 26.6176C95.016 26.6176 94.8408 26.4539 94.8178 26.1265L94.7834 25.5665C94.7786 25.4958 94.7887 25.4249 94.813 25.3582C94.8373 25.2915 94.8753 25.2304 94.9245 25.1787C94.9738 25.127 95.0334 25.0858 95.0995 25.0577C95.1656 25.0295 95.2369 25.0151 95.3089 25.0151L101.236 25.0238C101.407 25.0235 101.576 25.0687 101.724 25.1549C101.872 25.2411 101.994 25.3651 102.078 25.5142C102.162 25.6633 102.205 25.8321 102.203 26.0033C102.2 26.1745 102.152 26.3419 102.063 26.4884L97.9107 33.4237C97.6982 33.7798 97.7987 33.9578 98.2123 33.9578Z" fill="white"/>
<path d="M83.2728 51.3518C72.9947 59.4846 61.4244 64.9209 48.4583 65.9978C48.3319 66.0093 48.2228 65.9748 48.1309 65.8944C48.1079 65.8772 48.0936 65.8542 48.0878 65.8255C48.0763 65.7681 48.0993 65.7307 48.1568 65.7135C58.6617 63.0026 68.2104 58.1981 76.8027 51.3001C77.1434 51.0267 77.5659 50.8777 78.0002 50.8779H83.1091C83.6261 50.8779 83.6806 51.0359 83.2728 51.3518Z" fill="white"/>
</svg>
